<svg width="339" height="251" viewBox="0 0 339 251" fill="none" xmlns="http://www.w3.org/2000/svg">
<path d="M301.729 146.062L274.215 134.301C248.033 162.024 214.304 178.966 177.269 179.571V208.609M301.729 146.062L329.243 157.823C301.915 209.395 244.84 244.181 177.269 244.874V221.046M301.729 146.062C296.803 153.771 291.283 160.798 285.271 167.151C263.111 190.568 234.27 204.827 203.892 210.315M35.5389 104.162L63.0778 115.845C64.8931 113.937 66.7856 112.076 68.748 110.264M35.5389 104.162L8 92.4783C35.3532 41.2458 92.7501 6.6882 160.385 6V37.9232C112.175 38.5756 63.9227 60.0728 35.5389 104.162ZM310.71 101.086L331 92.4783C303.702 41.3492 244.767 6.82786 177.269 6.00458V37.9232C226.763 38.5928 275.572 61.2125 302.727 104.473L274.453 116.469C248.263 88.6611 205.802 70.5614 168.622 69.8369C137.553 70.3413 102.839 82.9701 76.985 103.257L63.0778 92.4783M209.807 124.977C209.807 147.723 191.368 166.162 168.622 166.162C145.876 166.162 127.437 147.723 127.437 124.977C127.437 102.231 145.876 83.7915 168.622 83.7915C191.368 83.7915 209.807 102.231 209.807 124.977ZM34.7701 145.748L63.0182 133.674C89.2811 161.769 123.071 178.961 160.385 179.571V212.892C110.791 212.335 61.9752 189.416 34.7701 145.748Z" stroke="white" stroke-width="10.2963"/>
</svg>
